<svg width="56" height="51" viewBox="0 0 56 51" fill="none" xmlns="http://www.w3.org/2000/svg">
<path d="M46.6667 12.75H37.3333V8.5C37.3333 6.1625 35.2333 4.25 32.6667 4.25H23.3333C20.7667 4.25 18.6667 6.1625 18.6667 8.5V12.75H9.33332C6.76666 12.75 4.66666 14.6625 4.66666 17V42.5C4.66666 44.8375 6.76666 46.75 9.33332 46.75H46.6667C49.2333 46.75 51.3333 44.8375 51.3333 42.5V17C51.3333 14.6625 49.2333 12.75 46.6667 12.75ZM23.3333 8.5H32.6667V12.75H23.3333V8.5ZM46.6667 42.5H9.33332V17H46.6667V42.5Z" fill="white"/>
<path d="M30.3333 21.25H25.6667V27.625H18.6667V31.875H25.6667V38.25H30.3333V31.875H37.3333V27.625H30.3333V21.25Z" fill="white"/>
</svg>
